<?xml version="1.0" encoding="UTF-8"?>
<svg xmlns="http://www.w3.org/2000/svg" 
     xml:space="preserve" 
     width="64" 
     height="64" 
     version="1.1" 
     style="shape-rendering:geometricPrecision; text-rendering:geometricPrecision; image-rendering:optimizeQuality; fill-rule:evenodd; clip-rule:evenodd; background:transparent;"
     viewBox="0 0 64 64">
 <defs>
  <style type="text/css">
   <![CDATA[
    .str2 {stroke:#285286;stroke-width:3;stroke-miterlimit:2.61313}
    .str0 {stroke:#285286;stroke-width:1.5;stroke-miterlimit:2.61313}
    .str3 {stroke:#285286;stroke-width:2;stroke-linecap:round;stroke-linejoin:round;stroke-miterlimit:2.61313}
    .str4 {stroke:#285286;stroke-width:1.5;stroke-linecap:round;stroke-linejoin:round;stroke-miterlimit:2.61313}
    .str1 {stroke:#285286;stroke-width:0.216;stroke-linecap:round;stroke-linejoin:round;stroke-miterlimit:2.61313}
    .fil0 {fill:none;fill-rule:nonzero}
    .fil1 {fill:#285286;fill-rule:nonzero}
   ]]>
  </style>
 </defs>
 <g id="Layer_x0020_1">
  <metadata id="CorelCorpID_0Corel-Layer"/>
  <g id="_2308270811648">
   <path class="fil0 str0" d="M40.937 58.351c1.136,0.104 2.567,0.143 3.415,-0.387 0.669,-0.419 1.325,-1.222 1.276,-2.239 -0.106,-2.204 -2.037,-2.514 -3.909,-2.52 -0.061,0 -0.739,0.024 -0.764,0.036 -0.004,0.002 -0.015,4.677 -0.018,5.11z"/>
   <path class="fil1" d="M12.262 58.583l0 -13.593 5.516 0c6.375,0 11.116,-2.902 11.116,-9.644 0,-6.906 -4.822,-9.808 -11.116,-9.808l-11.36 0 0 33.045 5.844 0zm5.312 -27.855c3.024,0 5.19,1.185 5.19,4.618 0,3.228 -2.166,4.454 -5.19,4.454l-5.312 0 0 -9.072 5.312 0z"/>
   <path class="fil1" d="M33.401 45.034c2.511,0 4.231,-1.896 4.231,-4.331 0,-2.423 -1.72,-4.32 -4.231,-4.32 -2.511,0 -4.231,1.897 -4.231,4.32 0,2.435 1.72,4.331 4.231,4.331zm0 -1.745c-1.544,0 -2.335,-1.08 -2.335,-2.586 0,-1.495 0.791,-2.587 2.335,-2.587 1.557,0 2.335,1.092 2.335,2.587 0,1.506 -0.778,2.586 -2.335,2.586z"/>
   <path class="fil1" d="M17.903 58.505c1.752,0 2.803,-0.764 3.393,-1.609l-1.386 -1.385c-0.287,0.669 -0.876,1.146 -1.975,1.146 -1.019,0 -1.752,-0.525 -1.895,-1.624l5.319 0c0.048,-0.175 0.08,-0.621 0.08,-0.956 0,-2.038 -1.242,-3.695 -3.727,-3.695 -2.294,0 -3.807,1.657 -3.807,4.062 0,2.405 1.513,4.061 3.998,4.061zm-0.175 -6.371c1.019,0 1.577,0.558 1.656,1.593l-3.344 0c0.111,-1.051 0.716,-1.593 1.688,-1.593z"/>
   <polygon class="fil1" points="24.945,58.518 24.945,55.603 24.707,52.467 25.626,55.057 26.567,57.171 28.269,57.171 29.21,55.057 30.118,52.467 29.891,55.603 29.891,58.518 31.513,58.518 31.513,50.737 29.369,50.737 28.133,53.629 27.418,55.94 26.704,53.629 25.467,50.737 23.323,50.737 23.323,58.518 "/>
   <polygon class="fil0 str1" points="24.945,58.518 24.945,55.603 24.707,52.467 25.626,55.057 26.567,57.171 28.269,57.171 29.21,55.057 30.118,52.467 29.891,55.603 29.891,58.518 31.513,58.518 31.513,50.737 29.369,50.737 28.133,53.629 27.418,55.94 26.704,53.629 25.467,50.737 23.323,50.737 23.323,58.518 "/>
   <path class="fil1 str2" d="M6.429 23.897l25.894 -20.337c0.014,-0.011 0.034,-0.011 0.047,0l11.121 8.734 0.001 0.097 -11.145 -8.753 -25.794 20.259 -0.124 0zm41.769 -7.906l0 -0.001 10.067 7.907 -0.124 0 -9.943 -7.81 0 -0.096z"/>
   <path class="fil1" d="M43.971 8.07l-0.065 5.12 -0.736 -0.581 0.066 -4.926c0.005,-0.204 0.175,-0.366 0.379,-0.361l4.752 0.105c0.204,0.005 0.366,0.175 0.361,0.379l-0.199 8.99 -0.731 -0.55 0.181 -8.087 -4.008 -0.089z"/>
   <path class="fil0 str3" d="M58.888 25.661c0.118,5.003 0.336,25.514 -0.624,29.433 -1.725,7.039 -9.479,1.77 -12.62,1.333"/>
   <polygon class="fil0 str4" points="38.95,53.268 40.237,53.268 40.237,58.356 38.95,58.356 "/>
   <path class="fil1 str4" d="M37.85 57.596c-0.385,0.002 -0.769,0.004 -1.154,0.006 -0.513,0.003 -0.516,-0.518 -0.003,-0.521 0.384,-0.001 0.769,-0.003 1.153,-0.005 0.002,0.173 0.003,0.346 0.004,0.52z"/>
   <path class="fil1 str4" d="M37.824 54.414c-0.384,0.002 -0.769,0.004 -1.154,0.006 -0.512,0.003 -0.516,-0.518 -0.003,-0.52 0.384,-0.002 0.769,-0.004 1.154,-0.006 0.001,0.173 0.002,0.347 0.003,0.52z"/>
   <polygon class="fil1" points="44.51,44.982 44.51,29.305 50.285,29.305 50.285,25.638 34.607,25.638 34.607,29.305 40.381,29.305 40.381,44.982 "/>
   <path class="fil1" d="M50.081 45.034c2.511,0 4.231,-1.896 4.231,-4.331 0,-2.423 -1.72,-4.32 -4.231,-4.32 -2.511,0 -4.232,1.897 -4.232,4.32 0,2.435 1.721,4.331 4.232,4.331zm0 -1.745c-1.545,0 -2.336,-1.08 -2.336,-2.586 0,-1.495 0.791,-2.587 2.336,-2.587 1.557,0 2.335,1.092 2.335,2.587 0,1.506 -0.778,2.586 -2.335,2.586z"/>
  </g>
 </g>
</svg>