<svg xmlns="http://www.w3.org/2000/svg" xml:space="preserve" width="7.1732in" height="6.02914in" version="1.1" style="shape-rendering:geometricPrecision; text-rendering:geometricPrecision; image-rendering:optimizeQuality; fill-rule:evenodd; clip-rule:evenodd"
viewBox="0 0 1543.28 1297.14"
 xmlns:xlink="http://www.w3.org/1999/xlink"
 xmlns:xodm="http://www.corel.com/coreldraw/odm/2003">
 <defs>
  <style type="text/css">
   <![CDATA[
    .fil0 {fill:#2563eb}
   ]]>
  </style>
 </defs>
 <g id="Layer_x0020_1">
  <metadata id="CorelCorpID_0Corel-Layer"/>
  <path class="fil0" d="M708.6 112.79l-366.52 231.17 -178.82 0 544.92 -343.7 0.42 -0.26 0.42 0.27 832.38 525 1.89 1.19 0 10.3 0 79.29 0 681.1 -3.98 0 -91.42 0 -460.09 0 0 -95.4 460.09 0 0 -585.7 -427.11 0 0 292.49 -73.96 0 0 -292.49 -133.57 0 0 -90.78 549.33 0 -653.98 -412.48zm502.06 648.04c-9.14,8.85 -13.7,20.23 -13.7,34.15 0,13.92 4.57,25.3 13.7,34.15 9.14,8.85 20.37,13.27 33.71,13.27 13.34,0 24.58,-4.42 33.72,-13.27 9.14,-8.85 13.7,-20.23 13.7,-34.15 0,-13.92 -4.57,-25.3 -13.7,-34.15 -9.14,-8.85 -20.37,-13.27 -33.72,-13.27 -13.34,0 -24.58,4.42 -33.71,13.27zm-52.42 118.11c-23.49,-22.04 -35.24,-50.03 -35.24,-83.96 0,-33.93 11.75,-61.92 35.24,-83.96 23.49,-22.04 52.2,-33.06 86.14,-33.06 33.93,0 62.64,11.02 86.14,33.06 23.49,22.04 35.24,50.03 35.24,83.96 0,33.93 -11.75,61.92 -35.24,83.96 -23.49,22.04 -52.2,33.06 -86.14,33.06 -33.93,0 -62.64,-11.02 -86.14,-33.06zm-468.74 -121.57c-9.14,8.85 -13.7,20.23 -13.7,34.15 0,13.92 4.57,25.3 13.7,34.15 9.14,8.85 20.37,13.27 33.71,13.27 13.34,0 24.58,-4.42 33.72,-13.27 9.14,-8.85 13.7,-20.23 13.7,-34.15 0,-13.92 -4.57,-25.3 -13.7,-34.15 -9.14,-8.85 -20.37,-13.27 -33.72,-13.27 -13.34,0 -24.58,4.42 -33.71,13.27zm-52.42 118.11c-23.49,-22.04 -35.24,-50.03 -35.24,-83.96 0,-33.93 11.75,-61.92 35.24,-83.96 23.49,-22.04 52.2,-33.06 86.14,-33.06 33.93,0 62.64,11.02 86.14,33.06 23.49,22.04 35.24,50.03 35.24,83.96 0,33.93 -11.75,61.92 -35.24,83.96 -23.49,22.04 -52.2,33.06 -86.14,33.06 -33.93,0 -62.64,-11.02 -86.14,-33.06zm-87.63 421.67l0 -307.99 85.8 0 80.52 160.59 80.52 -160.59 85.8 0 0 307.99 -74.8 0 0 -185.67 -68.2 139.92 -46.2 0 -68.64 -139.92 0 185.67 -74.8 0zm-275.72 -191.39l174.57 0 0 73.92 -174.57 0 0 43.56 174.37 0 0 73.92 -249.17 0 0 -307.99 249.17 0 0 73.92 -174.37 0 0 42.68zm-273.73 -658.26l0 849.65 95.4 0 0 -392.81 204.68 0c353.51,0 343.9,-456.84 11.79,-456.84l-311.87 0zm300.07 93.04c216.06,0 230.52,270.76 0,270.76l-204.68 0 0 -270.76 204.68 0z"/>
 </g>
</svg>